<svg xmlns="http://www.w3.org/2000/svg" data-name="Layer 1" viewBox="0 0 2143.43 1324.67"><path d="M70.33 847.14c.28 1.12-.46 1.28-.96 1.93-6.62 8.64-14.45 16.19-14.45 28.56v81.19c25.07-19.93 51.39-39.72 74.79-61.6 11.01-10.29 28.32-26.58 34.23-40.22 1.43-3.31 2.09-6.68 3.62-9.86h66.43c-.35.99-2.26 1.73-3.2 2.26-6.23 3.44-12.8 6.41-19.05 9.83-44.57 24.33-86.79 52.72-127.26 83.3L234 1098.1h-53.59L54.93 961.39v108.15c0 1.43 1.25 6.2 1.75 7.88 2.48 8.34 8.53 14.52 14.3 20.68H.37c9.65-9.61 15.22-18.4 16.08-32.38l-.04-184.87c-.65-7.07-2.03-13.56-5.02-20.02L1.01 847.14h69.32Zm1936.94-3.24c105.15-7.39 171.38 111.18 116.31 199.11-48.85 78-165.58 77.02-212.98-2.06-47.92-79.96 1.23-190.34 96.66-197.05Zm30.17 17.98c-38.92 3.43-77.64 37.27-98.08 68.79-27.61 42.57-39.16 109.93 8.53 142.97 71.24 49.34 160.22-48.88 171.66-115.53 9.47-55.15-23.8-101.37-82.11-96.23ZM843.73 1098.1h-57.76c-4.78-31.2-18.72-59.48-32.08-87.62l-108.55.09c-6.4 14.71-13.5 28.78-12.05 45.41 1.6 18.3 14.79 31.24 28.16 42.12H594.7c6.81-13.94 14.27-27.55 21.09-41.49 27.24-55.67 50.86-113.14 77.22-169.24 4.94-9.5 5.44-23.36 9.69-32.67 2.15-4.7 8.87-10.53 11.7-15.25 29.48 58.46 56.76 118.03 85.77 176.72 13.71 27.74 27.42 55.51 43.55 81.92Zm-93.71-94.99-51.35-112.32-49.41 112.32h100.77Zm662.41 94.77h-56.8c-2.78-7.55-4.04-16-6.28-23.89-6.31-22.26-16.96-42.9-26.77-63.73l-108.55.07c-7.43 17.31-15.54 33.48-10.52 52.9 3.84 14.87 15.54 25.01 26.64 34.65h-66.75l35.85-72.3L1263 884.59c3.89-8.71 4.71-22.22 8.74-30.41 2.33-4.73 8.49-10.23 11.36-14.94 2.75 4.42 5 9.21 7.29 13.88 27.8 56.66 54.3 114 82.34 170.54 12.47 25.16 25.23 50.16 39.7 74.22Zm-93.7-94.99-51.67-112.31-49.1 112.31h100.77Zm329.25 94.99c36.96-69.02 66.41-141.77 99.6-212.65 4.06-9.07 4.82-22.18 8.94-30.85.6-1.26 10.27-14.87 11.17-15.16 1.17-.37.86.43 1.11.83 1.47 2.35 2.97 5.96 4.25 8.57 34.22 70.22 67.47 140.92 102.45 210.76l21.51 38.5h-57.12c-5.16-31.15-19.07-59.18-32.02-87.53l-108.54-.08c-.94.57-8.01 17.7-8.82 20.07-6.87 20.26-4.46 37.91 9.78 54.08l15.09 13.47h-67.39Zm54.56-94.99h101.41l-51.67-112.32-49.74 112.32ZM243.62 1098.1c11.42-21.46 22.28-43.23 32.64-65.24 21.21-45.07 42.93-92.02 62.46-137.79 1.92-4.5 4.09-8.95 5.68-13.58 5.57-16.32 5.08-27.55 18.07-40.98.44-.46.55-1.31 1.49-1.08l92.84 192.14 16.49 32.29 19.37 34.23h-57.12c-5.8-31.12-18.6-59.59-32.73-87.62l-108.41-.24c-3.15 9.3-8.39 17.96-10.56 27.63-4.99 22.26 2.22 38.36 18.49 53.19l8.68 7.04h-67.39Zm155.97-94.99-52.62-112.32-48.79 112.32h101.41Zm751.62-67.62c-1.66.33-1.13-.35-1.61-1.25-8.01-14.89-12.99-27.26-24.08-40.77-32.73-39.86-90.34-57.9-132.85-21.21-30.63 26.44-36.82 72.67-31.33 110.94 9.8 68.35 74.94 110.96 141.43 87.73 30.34-10.6 50.24-34.56 63.54-62.91 1.68-.23.56.67.3 1.58-25.42 87.03-132.71 123.12-202.46 61.94-36.69-32.18-46.33-89.31-33.66-135.04 21.99-79.39 123.53-116.05 194.99-79.56 3.93 2.01 13.48 7.15 16.37 9.95.6.59 1.12 1.06 1.26 1.94l8.12 66.65Zm484.57.01c-3.41-4.46-5.27-10.35-8-15.42-22.34-41.47-65.16-76.91-115.34-65.89-63.17 13.88-77.89 91.85-62.73 145.76 14.04 49.91 61.91 82.69 113.79 76.67 40.63-4.71 71.75-31.44 87.06-68.59l1.17.85c-12.37 37.78-37.26 68.98-74.82 83.72-74.5 29.23-154.01-13.22-165.01-93.34-7.35-53.48 8.53-99.14 52.96-130.39 46.52-32.72 117.57-36.67 163.09-.3l7.83 66.93Zm-1055.2-88.36c-4.67 4.74-10.1 8.61-13.18 14.73-2.74 5.44-3.3 11.1-4.14 17.04l-.04 189.36c.91 14.56 6.92 20.73 17.36 29.81h-72.53c-.29-1.24.46-1.24 1.08-1.81 11.49-10.5 15.23-13.83 16.24-30.61-2.1-59.99 2.81-121.89.04-181.66-.49-10.52-1.56-19.83-8.39-28.19-2.67-3.27-6.36-5.41-8.97-8.68h72.53ZM454.5 1324.56a45 45 0 0 1-17.49-3.51c-5.61-2.34-10.58-5.7-14.9-10.09l6.91-8.1c4.1 4.03 8.29 7.04 12.58 9.01 4.28 1.98 8.8 2.97 13.55 2.97 3.6 0 6.76-.54 9.5-1.62 2.73-1.08 4.88-2.57 6.42-4.48 1.55-1.91 2.32-4.08 2.32-6.53 0-3.38-1.19-5.97-3.56-7.77-2.38-1.8-6.3-3.17-11.77-4.1l-12.63-2.05c-6.91-1.15-12.07-3.35-15.49-6.59-3.42-3.24-5.13-7.56-5.13-12.96 0-4.39 1.15-8.22 3.45-11.5 2.3-3.27 5.56-5.81 9.77-7.61 4.21-1.8 9.12-2.7 14.74-2.7s10.74.88 16.03 2.65c5.29 1.76 10.06 4.3 14.3 7.61l-6.26 8.64c-8.13-6.19-16.37-9.29-24.72-9.29-3.31 0-6.19.47-8.64 1.4-2.45.94-4.36 2.25-5.72 3.94-1.37 1.69-2.05 3.69-2.05 5.99 0 3.02 1.04 5.33 3.13 6.91s5.54 2.77 10.36 3.56l12.2 2.05c7.99 1.29 13.85 3.63 17.6 7.02 3.74 3.38 5.61 8.03 5.61 13.93 0 4.61-1.24 8.66-3.72 12.15-2.48 3.49-6.01 6.21-10.58 8.15-4.57 1.94-9.84 2.91-15.82 2.91Zm62.18-1.08v-75.57h11.44v32.39h40.05v-32.39h11.44v75.57h-11.44v-32.93h-40.05v32.93h-11.44Zm99.86 0v-75.57h11.44v75.57h-11.44Zm48.36 0v-75.57h55.92v9.93h-44.48v23.21h29.26v9.72h-29.26v32.71H664.9Zm109.36 0v-65.42H747.7v-10.15h64.45v10.15H785.7v65.42h-11.44Zm135.92 0v-30.01l-30.44-45.56h13.28l23.21 35.52 23.21-35.52h12.63l-30.55 45.77v29.8h-11.34Zm100.08 1.19c-5.54 0-10.71-.99-15.49-2.97-4.79-1.98-8.98-4.75-12.58-8.31-3.6-3.56-6.39-7.7-8.37-12.42-1.98-4.71-2.97-9.81-2.97-15.28s.99-10.56 2.97-15.28c1.98-4.71 4.77-8.85 8.37-12.42 3.6-3.56 7.79-6.33 12.58-8.31 4.79-1.98 9.95-2.97 15.49-2.97s10.58.99 15.33 2.97c4.75 1.98 8.92 4.75 12.52 8.31 3.6 3.56 6.4 7.7 8.42 12.42 2.01 4.71 3.02 9.81 3.02 15.28s-1.01 10.56-3.02 15.28c-2.02 4.71-4.82 8.85-8.42 12.42-3.6 3.56-7.77 6.33-12.52 8.31-4.75 1.98-9.86 2.97-15.33 2.97Zm0-10.47c3.89 0 7.5-.72 10.85-2.16 3.35-1.44 6.28-3.46 8.8-6.05 2.52-2.59 4.48-5.61 5.88-9.07 1.4-3.46 2.11-7.2 2.11-11.23s-.7-7.86-2.11-11.28c-1.4-3.42-3.37-6.42-5.88-9.01-2.52-2.59-5.45-4.6-8.8-6.04-3.35-1.44-6.96-2.16-10.85-2.16s-7.63.72-11.01 2.16c-3.38 1.44-6.32 3.45-8.8 6.04-2.48 2.59-4.45 5.6-5.88 9.01-1.44 3.42-2.16 7.18-2.16 11.28s.72 7.77 2.16 11.23c1.44 3.45 3.4 6.48 5.88 9.07s5.41 4.61 8.8 6.05c3.38 1.44 7.05 2.16 11.01 2.16Zm103.75 10.47c-6.55 0-12.24-1.37-17.06-4.1-4.82-2.73-8.55-6.6-11.17-11.61-2.63-5-3.94-10.92-3.94-17.76v-43.29h11.44v43.29c0 4.68.85 8.73 2.54 12.15s4.12 6.06 7.29 7.93 6.84 2.81 11.01 2.81 7.81-.93 10.9-2.81c3.09-1.87 5.51-4.52 7.23-7.93 1.73-3.42 2.59-7.47 2.59-12.15v-43.29h11.34v43.29c0 6.84-1.31 12.76-3.94 17.76-2.63 5-6.33 8.87-11.12 11.61-4.79 2.74-10.49 4.1-17.11 4.1Zm67.8-1.19v-75.57h34.33c5.04 0 9.45.94 13.22 2.81 3.78 1.87 6.71 4.48 8.8 7.83 2.09 3.35 3.13 7.29 3.13 11.82 0 4.89-1.4 9.14-4.21 12.74-2.81 3.6-6.55 6.19-11.23 7.77l16.84 32.6h-12.74l-15.55-30.98h-21.16v30.98h-11.44Zm11.44-40.48h21.92c4.46 0 8.02-1.13 10.69-3.4 2.66-2.27 4-5.31 4-9.12s-1.33-6.87-4-9.18c-2.66-2.3-6.23-3.45-10.69-3.45h-21.92V1283Zm125.45 40.48v-75.57h15.22l23.64 48.26 23.64-48.26h15.11v75.57h-10.69v-61.64l-28.18 56.25-28.18-56.25v61.64h-10.58Zm150.81 1.19c-5.54 0-10.71-.99-15.49-2.97-4.79-1.98-8.98-4.75-12.58-8.31-3.6-3.56-6.39-7.7-8.37-12.42-1.98-4.71-2.97-9.81-2.97-15.28s.99-10.56 2.97-15.28c1.98-4.71 4.77-8.85 8.37-12.42 3.6-3.56 7.79-6.33 12.58-8.31 4.79-1.98 9.95-2.97 15.49-2.97s10.58.99 15.33 2.97c4.75 1.98 8.92 4.75 12.52 8.31 3.6 3.56 6.41 7.7 8.42 12.42 2.01 4.71 3.02 9.81 3.02 15.28s-1.01 10.56-3.02 15.28c-2.02 4.71-4.82 8.85-8.42 12.42-3.6 3.56-7.77 6.33-12.52 8.31s-9.86 2.97-15.33 2.97Zm0-10.47c3.89 0 7.5-.72 10.85-2.16 3.35-1.44 6.28-3.46 8.8-6.05 2.52-2.59 4.48-5.61 5.88-9.07 1.4-3.46 2.11-7.2 2.11-11.23s-.7-7.86-2.11-11.28c-1.4-3.42-3.37-6.42-5.88-9.01-2.52-2.59-5.45-4.6-8.8-6.04-3.35-1.44-6.96-2.16-10.85-2.16s-7.63.72-11.01 2.16c-3.38 1.44-6.32 3.45-8.8 6.04-2.48 2.59-4.44 5.6-5.88 9.01-1.44 3.42-2.16 7.18-2.16 11.28s.72 7.77 2.16 11.23c1.44 3.45 3.4 6.48 5.88 9.07s5.42 4.61 8.8 6.05c3.38 1.44 7.05 2.16 11.01 2.16Zm109.15 10.47c-5.54 0-10.71-.99-15.49-2.97-4.79-1.98-8.98-4.75-12.58-8.31-3.6-3.56-6.39-7.7-8.37-12.42-1.98-4.71-2.97-9.81-2.97-15.28s.99-10.56 2.97-15.28c1.98-4.71 4.77-8.85 8.37-12.42 3.6-3.56 7.79-6.33 12.58-8.31 4.79-1.98 9.95-2.97 15.49-2.97s10.58.99 15.33 2.97c4.75 1.98 8.92 4.75 12.52 8.31 3.6 3.56 6.41 7.7 8.42 12.42 2.01 4.71 3.02 9.81 3.02 15.28s-1.01 10.56-3.02 15.28c-2.02 4.71-4.82 8.85-8.42 12.42-3.6 3.56-7.77 6.33-12.52 8.31s-9.86 2.97-15.33 2.97Zm0-10.47c3.89 0 7.5-.72 10.85-2.16 3.35-1.44 6.28-3.46 8.8-6.05 2.52-2.59 4.48-5.61 5.88-9.07 1.4-3.46 2.11-7.2 2.11-11.23s-.7-7.86-2.11-11.28c-1.4-3.42-3.37-6.42-5.88-9.01-2.52-2.59-5.45-4.6-8.8-6.04-3.35-1.44-6.96-2.16-10.85-2.16s-7.63.72-11.01 2.16c-3.38 1.44-6.32 3.45-8.8 6.04-2.48 2.59-4.44 5.6-5.88 9.01-1.44 3.42-2.16 7.18-2.16 11.28s.72 7.77 2.16 11.23c1.44 3.45 3.4 6.48 5.88 9.07s5.42 4.61 8.8 6.05c3.38 1.44 7.05 2.16 11.01 2.16Zm72.98 9.28v-75.57h26.67c5.76 0 11.05.96 15.87 2.86 4.82 1.91 9.01 4.55 12.58 7.93 3.56 3.38 6.35 7.38 8.37 11.98 2.01 4.61 3.02 9.65 3.02 15.11s-.99 10.38-2.97 14.95c-1.98 4.57-4.77 8.55-8.37 11.93-3.6 3.38-7.81 6.03-12.63 7.93-4.82 1.91-10.11 2.86-15.87 2.86h-26.67Zm11.44-10.26h15.44c3.96 0 7.63-.68 11.01-2.05 3.38-1.37 6.35-3.29 8.91-5.78 2.55-2.48 4.53-5.4 5.94-8.75 1.4-3.35 2.11-6.96 2.11-10.85s-.7-7.61-2.11-10.96a26.62 26.62 0 0 0-5.94-8.8c-2.56-2.52-5.52-4.46-8.91-5.83-3.38-1.37-7.05-2.05-11.01-2.05h-15.44v55.06ZM1222.7 428.7l193.18-334.6c-6.12-3.75-12.31-7.39-18.56-10.94l-193.47 335.11c6.43 3.24 12.73 6.71 18.85 10.43Zm-141.35-39.44c3.61 0 7.2.09 10.77.23V.14c-3.59-.06-7.17-.14-10.77-.14s-7.18.08-10.77.14V389.5c3.58-.14 7.16-.23 10.77-.23Zm78.47 11.48L1260.4 25.37a648.9 648.9 0 0 0-20.79-5.67l-100.66 375.68a273.74 273.74 0 0 1 20.87 5.36Zm116.97 71.05 270.77-270.77c-4.93-5.22-9.95-10.36-15.05-15.41l-271.34 271.34c5.4 4.74 10.61 9.69 15.63 14.84Zm68.35 120.67 360.85-96.69c-1.63-7.01-3.41-13.97-5.26-20.89l-361.91 96.97c2.37 6.75 4.48 13.63 6.31 20.61Zm-26.51-65.02 327.89-189.31c-3.4-6.33-6.91-12.6-10.52-18.8l-328.75 189.81c4.03 5.94 7.82 12.05 11.38 18.31Zm-294.89-132.06L923.08 19.7c-6.98 1.77-13.9 3.67-20.79 5.67l100.58 375.37a273.74 273.74 0 0 1 20.87-5.36ZM823.88 571.85l-361.91-96.97c-1.85 6.92-3.63 13.88-5.26 20.89l360.85 96.69a273 273 0 0 1 6.31-20.61Zm134.97-153.58L765.38 83.16c-6.25 3.55-12.44 7.19-18.56 10.94L940 428.7a273.8 273.8 0 0 1 18.85-10.43Zm394.47 222.95c.52 6.87.78 13.8.78 20.8h368.09c.22-6.91.37-13.84.37-20.8h-369.25Zm-543.94 0H440.13c0 6.96.15 13.89.37 20.8h368.09c0-7 .27-13.93.78-20.8Zm92.16-184.28L630.2 185.6c-5.1 5.05-10.12 10.19-15.05 15.41l270.77 270.77c5.01-5.15 10.22-10.1 15.63-14.84Zm-46.09 52.19L526.7 319.32c-3.61 6.2-7.12 12.47-10.52 18.8l327.89 189.31c3.56-6.26 7.35-12.37 11.38-18.31Z" style="fill:#394649"></path></svg>