<?xml version="1.0" standalone="no"?>

<svg xmlns="http://www.w3.org/2000/svg" id="Layer_1" version="1.1" viewBox="0 0 614.6 336.2" width="614.5999755859375" height="336.20001220703125">
  
  <defs>
    
  </defs>
  <path class="st0" d="M368.8,204.3l83.9-145.4c-2.7-1.6-5.3-3.2-8.1-4.8l-84.1,145.6c2.8,1.4,5.5,2.9,8.2,4.5Z"></path>
  <path class="st0" d="M307.4,187.2c1.6,0,3.1,0,4.7.1V18.1c-1.6,0-3.1,0-4.7,0s-3.1,0-4.7,0v169.2c1.6,0,3.1-.1,4.7-.1Z"></path>
  <path class="st0" d="M341.5,192.2l43.7-163.1c-3-.9-6-1.7-9-2.5l-43.7,163.2c3.1.7,6.1,1.4,9.1,2.3Z"></path>
  <path class="st0" d="M392.3,223.1l117.6-117.6c-2.1-2.3-4.3-4.5-6.5-6.7l-117.9,117.9c2.3,2.1,4.6,4.2,6.8,6.4Z"></path>
  <path class="st0" d="M422,275.5l156.8-42c-.7-3-1.5-6.1-2.3-9.1l-157.2,42.1c1,2.9,1.9,5.9,2.7,9Z"></path>
  <path class="st0" d="M410.4,247.2l142.5-82.2c-1.5-2.8-3-5.5-4.6-8.2l-142.8,82.5c1.7,2.6,3.4,5.2,4.9,8Z"></path>
  <path class="st0" d="M282.3,189.9L238.6,26.6c-3,.8-6,1.6-9,2.5l43.7,163.1c3-.9,6-1.7,9.1-2.3Z"></path>
  <path class="st0" d="M195.5,266.5l-157.2-42.1c-.8,3-1.6,6-2.3,9.1l156.8,42c.8-3,1.7-6,2.7-9Z"></path>
  <path class="st0" d="M254.1,199.8L170.1,54.2c-2.7,1.5-5.4,3.1-8.1,4.8l83.9,145.4c2.7-1.6,5.4-3.1,8.2-4.5Z"></path>
  <path class="st0" d="M425.5,296.7c.2,3,.3,6,.3,9h159.9c0-3,.2-6,.2-9h-160.4Z"></path>
  <path class="st0" d="M189.2,296.7H28.8c0,3,0,6,.2,9h159.9c0-3,.1-6.1.3-9Z"></path>
  <path class="st0" d="M229.2,216.6l-117.9-117.9c-2.2,2.2-4.4,4.4-6.5,6.7l117.6,117.6c2.2-2.2,4.4-4.4,6.8-6.4Z"></path>
  <path class="st0" d="M209.2,239.3l-142.8-82.5c-1.6,2.7-3.1,5.4-4.6,8.2l142.5,82.2c1.5-2.7,3.2-5.4,4.9-8Z"></path>
</svg>